# Blender 3.1.0
# www.blender.org
mtllib Cloud.mtl
o cloud1
v -50.124435 67.901276 -222.279175
v -0.623156 -67.919151 -194.133362
v 48.878132 -22.704113 -63.003738
v -0.623149 113.116318 -91.149551
v -92.244629 -1.877564 -99.614777
v 90.998337 47.074726 -185.668121
v -37.749111 124.463905 -163.750824
v 30.967003 74.932716 -234.639740
v -37.749119 -11.312694 -240.988647
v -106.465225 38.218494 -170.099731
v 68.092957 -26.932606 -213.530396
v 36.502804 -79.266731 -121.532104
v -69.339264 -63.646824 -148.990387
v 105.218933 6.978671 -115.183197
v 36.502808 56.509857 -44.294250
v -32.213303 -29.735550 -50.643173
v 68.092972 108.843994 -136.292542
v -69.339256 72.129768 -71.752533
v -79.024689 84.456520 -134.374298
v 22.776962 111.652237 -182.181732
v -79.024689 -16.118748 -191.587555
v 22.776957 11.076972 -239.394989
v -24.023264 34.120193 -45.887955
v 77.778397 61.315910 -93.695374
v -24.023270 -66.455078 -103.101196
v 77.778397 -39.259357 -150.908600
v -72.882515 106.908440 -96.115479
v -0.623158 -91.355064 -55.029694
v 71.636215 -25.352539 136.386383
v -0.623147 172.910950 95.300629
v -134.367386 5.048955 82.943550
v 133.121078 76.506935 -42.672623
v -54.817673 189.475571 -10.678848
v 45.490498 117.172554 -114.158783
v -54.817684 -8.723952 -123.426605
v -155.125870 63.579063 -19.946671
v 99.685028 -31.525070 -83.344467
v 53.571369 -107.919670 50.949783
v -100.931320 -85.118561 10.867645
v 153.879547 17.976830 60.217598
v 53.571381 90.279846 163.697525
v -46.736801 -35.616661 154.429718
v 99.685028 166.674454 29.403290
v -100.931320 113.080971 123.615395
v -115.069588 131.074905 32.203415
v 33.535110 170.773773 -37.583344
v -115.069603 -15.739570 -51.313431
v 33.535103 23.959314 -121.100189
v -34.781406 57.596577 161.371124
v 113.823303 97.295471 91.584358
v -34.781414 -89.217888 77.854271
v 113.823296 -49.519012 8.067505
v -96.668602 13.487035 163.514099
v -1.661998 13.487035 68.507492
v 93.344612 13.487035 163.514099
v -1.661998 13.487035 258.520691
v -1.661998 -81.519569 163.514099
v -1.661998 108.493645 163.514099
v -72.916954 13.487035 234.769058
v -72.916954 84.741997 163.514099
v -72.916954 13.487035 92.259140
v -72.916954 -57.767925 163.514099
v -1.661998 84.741997 92.259140
v 69.592964 13.487035 92.259140
v -1.661998 -57.767925 92.259140
v 69.592964 84.741997 163.514099
v 69.592964 13.487035 234.769058
v 69.592964 -57.767925 163.514099
v -1.661998 84.741997 234.769058
v -1.661998 -57.767925 234.769058
v -54.443451 -39.294418 216.295547
v -54.443451 66.268486 216.295547
v -54.443451 -39.294418 110.732651
v -54.443451 66.268486 110.732651
v 51.119453 -39.294418 216.295547
v 51.119453 66.268486 216.295547
v 51.119453 -39.294418 110.732651
v 51.119453 66.268486 110.732651
vn -5.3377 68.7709 -65.3325
vn -15.0056 8.8794 -93.3930
vn -73.0131 2.9344 -60.7184
vn -63.3453 62.8259 -32.6579
vn 20.7792 -50.6455 -77.6499
vn 42.4517 -81.9103 -22.6894
vn -20.7793 -92.6264 -3.8517
vn -42.4517 -61.3615 -58.8122
vn 73.0131 -50.6917 33.5512
vn 63.3452 4.0343 70.6920
vn 5.3377 -21.0135 92.4997
vn 15.0056 -75.7396 55.3589
vn 46.8962 68.7246 45.8686
vn 5.8880 94.8240 -0.0115
vn -46.8962 74.5473 35.6330
vn -5.8880 48.4479 81.5131
vn -90.7913 21.2394 18.2232
vn -85.5679 -40.8497 -5.9741
vn -54.2276 -59.9803 49.8797
vn -59.4510 2.1087 74.0769
vn 90.7913 26.5179 8.9441
vn 85.5679 -26.0105 -32.0600
vn 54.2276 12.2230 -77.0469
vn 59.4510 64.7514 -36.0429
vn -15.0056 75.7395 -55.3589
vn -5.3377 21.0135 -92.4997
vn -63.3453 -4.0343 -70.6920
vn -73.0132 50.6917 -33.5512
vn 5.8880 -48.4479 -81.5131
vn 46.8962 -74.5472 -35.6330
vn -5.8880 -94.8240 0.0115
vn -46.8962 -68.7246 -45.8687
vn 63.3452 -62.8259 32.6579
vn 73.0131 -2.9344 60.7184
vn 15.0056 -8.8794 93.3930
vn 5.3377 -68.7708 65.3325
vn 42.4517 61.3615 58.8122
vn 20.7793 92.6264 3.8517
vn -42.4517 81.9103 22.6894
vn -20.7792 50.6455 77.6499
vn -85.5679 26.0105 32.0600
vn -90.7913 -26.5179 -8.9441
vn -59.4510 -64.7514 36.0429
vn -54.2276 -12.2231 77.0469
vn 85.5679 40.8497 5.9741
vn 90.7913 -21.2394 -18.2231
vn 59.4510 -2.1087 -74.0769
vn 54.2276 59.9803 -49.8797
vn -5.3377 68.7708 -65.3325
vn -73.0132 2.9345 -60.7184
vn -63.3452 62.8259 -32.6579
vn 20.7793 -50.6455 -77.6499
vn 73.0132 -50.6917 33.5512
vn 5.3377 -21.0136 92.4997
vn 5.8879 94.8240 -0.0115
vn -46.8962 74.5472 35.6330
vn -90.7913 21.2394 18.2231
vn -54.2276 -59.9804 49.8797
vn 54.2276 12.2231 -77.0469
vn 59.4509 64.7515 -36.0429
vn -15.0056 75.7396 -55.3589
vn -5.3377 21.0136 -92.4997
vn -63.3452 -4.0343 -70.6920
vn 5.8880 -48.4478 -81.5131
vn 46.8962 -74.5473 -35.6330
vn -46.8962 -68.7246 -45.8686
vn 73.0131 -2.9345 60.7184
vn 15.0056 -8.8794 93.3929
vn 20.7793 92.6263 3.8517
vn -20.7793 50.6455 77.6499
vn 59.4510 -2.1088 -74.0769
vn -82.4156 38.4606 27.4719
vn -82.4156 27.4719 -38.4606
vn -82.4156 -38.4606 -27.4719
vn -82.4156 -27.4719 38.4606
vn -27.4719 38.4606 -82.4156
vn 38.4606 27.4719 -82.4156
vn 27.4719 -38.4606 -82.4156
vn -38.4606 -27.4719 -82.4156
vn 82.4156 38.4606 -27.4719
vn 82.4156 27.4719 38.4606
vn 82.4156 -38.4606 27.4719
vn 82.4156 -27.4719 -38.4606
vn 27.4719 38.4606 82.4156
vn -38.4606 27.4719 82.4156
vn -27.4719 -38.4606 82.4156
vn 38.4606 -27.4719 82.4156
vn -38.4606 -82.4156 27.4719
vn -27.4719 -82.4156 -38.4606
vn 38.4606 -82.4156 -27.4719
vn 27.4719 -82.4156 38.4606
vn 38.4606 82.4156 27.4719
vn 27.4719 82.4156 -38.4606
vn -38.4606 82.4156 -27.4719
vn -27.4719 82.4156 38.4606
vn -82.4156 27.4719 38.4606
vn -82.4156 38.4606 -27.4719
vn -82.4156 -27.4719 -38.4606
vn -82.4156 -38.4606 27.4719
vn -38.4606 27.4719 -82.4156
vn 27.4719 38.4606 -82.4156
vn 38.4606 -27.4719 -82.4156
vn -27.4719 -38.4606 -82.4156
vn 82.4156 27.4719 -38.4606
vn 82.4156 38.4606 27.4719
vn 82.4156 -27.4719 38.4606
vn 82.4156 -38.4606 -27.4719
vn 38.4606 27.4719 82.4156
vn -27.4719 38.4606 82.4156
vn -38.4606 -27.4719 82.4156
vn 27.4719 -38.4606 82.4156
vn -27.4719 -82.4156 38.4606
vn -38.4606 -82.4156 -27.4719
vn 27.4719 -82.4156 -38.4606
vn 38.4606 -82.4156 27.4719
vn 27.4719 82.4156 38.4606
vn 38.4606 82.4156 -27.4719
vn -27.4719 82.4156 -38.4606
vn -38.4606 82.4156 27.4719
s 0
usemtl Material.004
f 1//1 7//1 20//1
f 1//2 8//2 22//2
f 1//3 9//3 21//3
f 1//4 10//4 19//4
f 2//5 9//5 22//5
f 2//6 11//6 26//6
f 2//7 12//7 25//7
f 2//8 13//8 21//8
f 3//9 12//9 26//9
f 3//10 14//10 24//10
f 3//11 15//11 23//11
f 3//12 16//12 25//12
f 4//13 15//13 24//13
f 4//14 17//14 20//14
f 4//15 7//15 19//15
f 4//16 18//16 23//16
f 5//17 18//17 19//17
f 5//18 10//18 21//18
f 5//19 13//19 25//19
f 5//20 16//20 23//20
f 6//21 17//21 24//21
f 6//22 14//22 26//22
f 6//23 11//23 22//23
f 6//24 8//24 20//24
f 8//25 1//25 20//25
f 9//26 1//26 22//26
f 10//27 1//27 21//27
f 7//28 1//28 19//28
f 11//29 2//29 22//29
f 12//30 2//30 26//30
f 13//31 2//31 25//31
f 9//32 2//32 21//32
f 14//33 3//33 26//33
f 15//34 3//34 24//34
f 16//35 3//35 23//35
f 12//36 3//36 25//36
f 17//37 4//37 24//37
f 7//38 4//38 20//38
f 18//39 4//39 19//39
f 15//40 4//40 23//40
f 10//41 5//41 19//41
f 13//42 5//42 21//42
f 16//43 5//43 25//43
f 18//44 5//44 23//44
f 14//45 6//45 24//45
f 11//46 6//46 26//46
f 8//47 6//47 22//47
f 17//48 6//48 20//48
f 27//49 33//49 46//49
f 27//2 34//2 48//2
f 27//50 35//50 47//50
f 27//51 36//51 45//51
f 28//52 35//52 48//52
f 28//6 37//6 52//6
f 28//7 38//7 51//7
f 28//8 39//8 47//8
f 29//53 38//53 52//53
f 29//10 40//10 50//10
f 29//54 41//54 49//54
f 29//12 42//12 51//12
f 30//13 41//13 50//13
f 30//55 43//55 46//55
f 30//56 33//56 45//56
f 30//16 44//16 49//16
f 31//57 44//57 45//57
f 31//18 36//18 47//18
f 31//58 39//58 51//58
f 31//20 42//20 49//20
f 32//21 43//21 50//21
f 32//22 40//22 52//22
f 32//59 37//59 48//59
f 32//60 34//60 46//60
f 34//61 27//61 46//61
f 35//62 27//62 48//62
f 36//63 27//63 47//63
f 33//28 27//28 45//28
f 37//64 28//64 48//64
f 38//65 28//65 52//65
f 39//31 28//31 51//31
f 35//66 28//66 47//66
f 40//33 29//33 52//33
f 41//67 29//67 50//67
f 42//68 29//68 49//68
f 38//36 29//36 51//36
f 43//37 30//37 50//37
f 33//69 30//69 46//69
f 44//39 30//39 45//39
f 41//70 30//70 49//70
f 36//41 31//41 45//41
f 39//42 31//42 47//42
f 42//43 31//43 51//43
f 44//44 31//44 49//44
f 40//45 32//45 50//45
f 37//46 32//46 52//46
f 34//71 32//71 48//71
f 43//48 32//48 46//48
f 53//72 59//72 72//72
f 53//73 60//73 74//73
f 53//74 61//74 73//74
f 53//75 62//75 71//75
f 54//76 61//76 74//76
f 54//77 63//77 78//77
f 54//78 64//78 77//78
f 54//79 65//79 73//79
f 55//80 64//80 78//80
f 55//81 66//81 76//81
f 55//82 67//82 75//82
f 55//83 68//83 77//83
f 56//84 67//84 76//84
f 56//85 69//85 72//85
f 56//86 59//86 71//86
f 56//87 70//87 75//87
f 57//88 70//88 71//88
f 57//89 62//89 73//89
f 57//90 65//90 77//90
f 57//91 68//91 75//91
f 58//92 69//92 76//92
f 58//93 66//93 78//93
f 58//94 63//94 74//94
f 58//95 60//95 72//95
f 60//96 53//96 72//96
f 61//97 53//97 74//97
f 62//98 53//98 73//98
f 59//99 53//99 71//99
f 63//100 54//100 74//100
f 64//101 54//101 78//101
f 65//102 54//102 77//102
f 61//103 54//103 73//103
f 66//104 55//104 78//104
f 67//105 55//105 76//105
f 68//106 55//106 75//106
f 64//107 55//107 77//107
f 69//108 56//108 76//108
f 59//109 56//109 72//109
f 70//110 56//110 71//110
f 67//111 56//111 75//111
f 62//112 57//112 71//112
f 65//113 57//113 73//113
f 68//114 57//114 77//114
f 70//115 57//115 75//115
f 66//116 58//116 76//116
f 63//117 58//117 78//117
f 60//118 58//118 74//118
f 69//119 58//119 72//119
